<svg width="41" height="40" viewBox="0 0 41 40" fill="none" xmlns="http://www.w3.org/2000/svg">
<path d="M20.4996 22.1668C20.2829 22.1668 20.0662 22.1168 19.8662 22.0001L5.14959 13.4835C4.54959 13.1335 4.34956 12.3668 4.69956 11.7668C5.04956 11.1668 5.79956 10.9667 6.41622 11.3167L20.4996 19.4668L34.4996 11.3668C35.0996 11.0168 35.8662 11.2335 36.2162 11.8168C36.5662 12.4168 36.3496 13.1834 35.7663 13.5334L21.1496 22.0001C20.9329 22.1001 20.7162 22.1668 20.4996 22.1668Z" fill="#292D32"/>
<path d="M20.5 37.2666C19.8167 37.2666 19.25 36.6999 19.25 36.0166V20.8999C19.25 20.2166 19.8167 19.6499 20.5 19.6499C21.1833 19.6499 21.75 20.2166 21.75 20.8999V36.0166C21.75 36.6999 21.1833 37.2666 20.5 37.2666Z" fill="#292D32"/>
<path d="M20.4996 37.9164C19.033 37.9164 17.5663 37.5997 16.433 36.9497L7.53297 32.0164C5.1163 30.6831 3.21631 27.4664 3.21631 24.6998V15.2664C3.21631 12.4997 5.1163 9.29978 7.53297 7.94978L16.433 3.01641C18.6996 1.74974 22.2663 1.74974 24.5496 3.01641L33.4496 7.94978C35.8663 9.28311 37.7663 12.4997 37.7663 15.2664V24.6998C37.7663 24.8164 37.7663 24.9831 37.7163 25.1997C37.6163 25.6331 37.2996 25.983 36.8829 26.1164C36.4663 26.2497 35.9996 26.1664 35.6663 25.8664C33.7663 24.1998 30.7996 24.1331 28.7663 25.7498C27.483 26.7664 26.7329 28.3164 26.7329 29.9664C26.7329 30.9497 26.9996 31.9165 27.5163 32.7498C27.6496 32.9831 27.783 33.1664 27.933 33.3331C28.183 33.6164 28.283 33.9997 28.2163 34.3664C28.1496 34.7331 27.9163 35.0664 27.583 35.2331L24.533 36.9165C23.4163 37.5998 21.9663 37.9164 20.4996 37.9164ZM20.4996 4.58308C19.4663 4.58308 18.4163 4.79975 17.6663 5.21642L8.76629 10.1498C7.14962 11.0498 5.74962 13.433 5.74962 15.2664V24.6998C5.74962 26.5331 7.16629 28.9331 8.76629 29.8164L17.6663 34.7497C19.1829 35.5997 21.833 35.5997 23.3496 34.7497L25.2163 33.7164C24.5996 32.5997 24.2663 31.2997 24.2663 29.9664C24.2663 27.533 25.3496 25.2831 27.233 23.7831C29.5163 21.9664 32.7496 21.5831 35.283 22.6831V15.2498C35.283 13.4165 33.8663 11.0164 32.2663 10.1331L23.3663 5.19974C22.583 4.79974 21.533 4.58308 20.4996 4.58308Z" fill="#292D32"/>
<path d="M32.1667 37.9168C27.8 37.9168 24.25 34.3668 24.25 30.0002C24.25 27.5668 25.3333 25.3168 27.2167 23.8168C28.6167 22.7001 30.3833 22.0835 32.1667 22.0835C36.5333 22.0835 40.0833 25.6335 40.0833 30.0002C40.0833 32.2668 39.1 34.4335 37.3833 35.9335C35.9333 37.2168 34.0833 37.9168 32.1667 37.9168ZM32.1667 24.5835C30.9333 24.5835 29.7667 25.0001 28.7833 25.7834C27.5 26.8001 26.75 28.3502 26.75 30.0002C26.75 32.9835 29.1833 35.4168 32.1667 35.4168C33.4667 35.4168 34.7333 34.9335 35.75 34.0668C36.9167 33.0335 37.5833 31.5668 37.5833 30.0002C37.5833 27.0168 35.15 24.5835 32.1667 24.5835Z" fill="#292D32"/>
<path d="M30.4997 32.9165C30.083 32.9165 29.6663 32.6999 29.433 32.3165C29.083 31.7165 29.2663 30.9498 29.8663 30.5998L31.3497 29.7165V27.9165C31.3497 27.2332 31.9163 26.6665 32.5997 26.6665C33.283 26.6665 33.8497 27.2332 33.8497 27.9165V30.4165C33.8497 30.8498 33.6163 31.2665 33.2496 31.4832L31.1663 32.7332C30.933 32.8665 30.7163 32.9165 30.4997 32.9165Z" fill="#292D32"/>
</svg>
