<svg width="41" height="40" viewBox="0 0 41 40" fill="none" xmlns="http://www.w3.org/2000/svg">
<path d="M25.5001 37.9167C25.0501 37.9167 24.6335 37.6667 24.4168 37.2833C24.2002 36.9 24.2002 36.4167 24.4335 36.0333L26.1835 33.1167C26.5335 32.5167 27.3002 32.3333 27.9002 32.6833C28.5002 33.0333 28.6835 33.8 28.3335 34.4L27.8835 35.15C32.4835 34.0667 35.9335 29.9333 35.9335 25C35.9335 24.3167 36.5001 23.75 37.1835 23.75C37.8668 23.75 38.4335 24.3167 38.4335 25C38.4168 32.1167 32.6168 37.9167 25.5001 37.9167Z" fill="#292D32"/>
<path d="M3.8335 16.2502C3.15016 16.2502 2.5835 15.6835 2.5835 15.0002C2.5835 7.8835 8.3835 2.0835 15.5002 2.0835C15.9502 2.0835 16.3668 2.3335 16.5835 2.71684C16.8002 3.10017 16.8002 3.5835 16.5668 3.96684L14.8168 6.8835C14.4668 7.4835 13.7002 7.66685 13.1002 7.31685C12.5002 6.96685 12.3168 6.20014 12.6668 5.60014L13.1168 4.85012C8.51684 5.93345 5.06684 10.0668 5.06684 15.0002C5.08351 15.6835 4.51683 16.2502 3.8335 16.2502Z" fill="#292D32"/>
<path d="M29.9665 12.5C29.7498 12.5 29.5331 12.4501 29.3331 12.3334L22.7165 8.49999C22.1165 8.14999 21.9165 7.38338 22.2665 6.78338C22.6165 6.18338 23.3831 5.98335 23.9665 6.33335L29.9665 9.80004L35.9165 6.35003C36.5165 6.00003 37.2831 6.21673 37.6165 6.80006C37.9665 7.40006 37.7498 8.16668 37.1665 8.51668L30.5831 12.3167C30.3998 12.4334 30.1831 12.5 29.9665 12.5Z" fill="#292D32"/>
<path d="M29.9668 19.2829C29.2835 19.2829 28.7168 18.7163 28.7168 18.0329V11.2329C28.7168 10.5496 29.2835 9.98291 29.9668 9.98291C30.6501 9.98291 31.2168 10.5496 31.2168 11.2329V18.0329C31.2168 18.7329 30.6501 19.2829 29.9668 19.2829Z" fill="#292D32"/>
<path d="M29.9666 19.5832C29.1999 19.5832 28.4166 19.4165 27.7999 19.0665L23.7999 16.8498C22.4999 16.1331 21.5166 14.4499 21.5166 12.9665V8.73314C21.5166 7.23314 22.4999 5.56653 23.8166 4.8332L27.8166 2.6165C29.0499 1.93317 30.8999 1.93317 32.1499 2.6165L36.1499 4.8332C37.4499 5.54987 38.4333 7.23313 38.4333 8.71646V12.9499C38.4333 14.4499 37.4499 16.1165 36.1499 16.8331L32.1499 19.0498C31.4999 19.4165 30.7333 19.5832 29.9666 19.5832ZM29.0166 4.78315L25.0166 6.99985C24.5166 7.28318 24.0166 8.13311 24.0166 8.69978V12.9332C24.0166 13.5165 24.5166 14.3665 25.0166 14.6332L29.0166 16.8665C29.4999 17.1332 30.4333 17.1332 30.9166 16.8665L34.9166 14.6498C35.4166 14.3665 35.9166 13.5165 35.9166 12.9499V8.71646C35.9166 8.13313 35.4166 7.2832 34.9166 7.01653L30.9166 4.79983C30.4333 4.5165 29.4833 4.51648 29.0166 4.78315Z" fill="#292D32"/>
<path d="M11.0334 30.833C10.8167 30.833 10.6 30.7831 10.4 30.6664L3.78336 26.833C3.18336 26.483 2.98335 25.7164 3.33335 25.1164C3.68335 24.5164 4.45003 24.3164 5.03336 24.6664L11.0334 28.133L16.9834 24.683C17.5834 24.333 18.35 24.5497 18.6834 25.1331C19.0334 25.7331 18.8167 26.4997 18.2334 26.8497L11.65 30.6497C11.4667 30.7664 11.25 30.833 11.0334 30.833Z" fill="#292D32"/>
<path d="M11.0332 37.6164C10.3499 37.6164 9.7832 37.0498 9.7832 36.3664V29.5664C9.7832 28.8831 10.3499 28.3164 11.0332 28.3164C11.7165 28.3164 12.2832 28.8831 12.2832 29.5664V36.3664C12.2832 37.0664 11.7332 37.6164 11.0332 37.6164Z" fill="#292D32"/>
<path d="M11.0335 37.9166C10.2668 37.9166 9.4835 37.7499 8.86684 37.3999L4.86682 35.1832C3.56682 34.4665 2.5835 32.7833 2.5835 31.3V27.0666C2.5835 25.5666 3.56682 23.8999 4.86682 23.1832L8.86684 20.9666C10.1002 20.2833 11.9668 20.2833 13.2002 20.9666L17.2002 23.1832C18.5002 23.8999 19.4835 25.5832 19.4835 27.0666V31.3C19.4835 32.8 18.5002 34.4666 17.1835 35.1999L13.1835 37.4166C12.5835 37.7499 11.8168 37.9166 11.0335 37.9166ZM10.0835 23.1166L6.08351 25.3333C5.58351 25.6166 5.0835 26.4665 5.0835 27.0332V31.2666C5.0835 31.8499 5.58351 32.7 6.08351 32.9666L10.0835 35.1832C10.5668 35.4499 11.5002 35.4499 11.9835 35.1832L15.9835 32.9666C16.4835 32.6833 16.9835 31.8333 16.9835 31.2666V27.0332C16.9835 26.4499 16.4835 25.5999 15.9835 25.3333L11.9835 23.0999C11.5168 22.8499 10.5668 22.8499 10.0835 23.1166Z" fill="#292D32"/>
</svg>
