<svg width="41" height="40" viewBox="0 0 41 40" fill="none" xmlns="http://www.w3.org/2000/svg">
<path d="M20.4998 23.6167C16.9498 23.6167 14.0498 20.7334 14.0498 17.1667C14.0498 13.6001 16.9498 10.7334 20.4998 10.7334C24.0498 10.7334 26.9498 13.6167 26.9498 17.1834C26.9498 20.7501 24.0498 23.6167 20.4998 23.6167ZM20.4998 13.2334C18.3331 13.2334 16.5498 15.0001 16.5498 17.1834C16.5498 19.3667 18.3165 21.1334 20.4998 21.1334C22.6831 21.1334 24.4498 19.3667 24.4498 17.1834C24.4498 15.0001 22.6665 13.2334 20.4998 13.2334Z" fill="#292D32"/>
<path d="M20.4998 37.9335C18.0331 37.9335 15.5498 37.0002 13.6165 35.1502C8.6998 30.4168 3.26647 22.8668 5.31647 13.8835C7.16647 5.7335 14.2831 2.0835 20.4998 2.0835C20.4998 2.0835 20.4998 2.0835 20.5165 2.0835C26.7331 2.0835 33.8498 5.7335 35.6998 13.9002C37.7331 22.8835 32.2998 30.4168 27.3831 35.1502C25.4498 37.0002 22.9665 37.9335 20.4998 37.9335ZM20.4998 4.5835C15.6498 4.5835 9.41647 7.16683 7.76647 14.4335C5.96647 22.2835 10.8998 29.0502 15.3665 33.3335C18.2498 36.1168 22.7665 36.1168 25.6498 33.3335C30.0998 29.0502 35.0331 22.2835 33.2665 14.4335C31.5998 7.16683 25.3498 4.5835 20.4998 4.5835Z" fill="#292D32"/>
</svg>
